<svg xmlns="http://www.w3.org/2000/svg">
<symbol id="circle-1-black">
	<svg xmlns="http://www.w3.org/2000/svg" width="30" height="30" viewBox="0 0 30 30"><polygon fill="#333" points="21.275 23 10.725 23 10.725 20.975 15.1 20.975 15.1 9 11.1 10.35 10.7 8.45 15.475 6.75 17.425 6.75 17.425 20.975 21.275 20.975"/>
	</svg>
</symbol>
<symbol id="bar-middle">
	<svg xmlns="http://www.w3.org/2000/svg" width="36" height="30" viewBox="0 0 36 30"><rect width="36" height="30" fill="#333" fill-rule="evenodd"/>
	</svg>
</symbol>
<symbol id="circle-6-black">
	<svg xmlns="http://www.w3.org/2000/svg" width="30" height="30" viewBox="0 0 30 30"><path fill="#333" d="M19.9508 6.60039V8.57539C19.4508 8.50039 18.9508 8.45039 18.3008 8.45039C14.9758 8.45039 13.2258 10.3754 12.6008 13.6754C12.5508 13.9254 12.4758 14.3504 12.4008 14.9004H12.4258C13.2258 13.5254 14.7258 12.7754 16.4508 12.7754C19.7008 12.7754 21.5008 14.8754 21.5008 17.5254C21.5008 20.9754 19.2508 23.2504 15.8508 23.2504C12.3258 23.2504 10.1758 20.7504 10.1758 16.4004C10.1758 9.45039 13.6258 6.52539 18.4758 6.52539C19.0008 6.52539 19.6008 6.55039 19.9508 6.60039ZM19.2008 17.9004C19.2008 15.9754 18.1008 14.6504 15.9758 14.6504C13.8758 14.6504 12.6508 16.3254 12.6508 17.7254C12.6508 19.7504 13.8258 21.4004 16.0508 21.4004C18.0508 21.4004 19.2008 19.9504 19.2008 17.9004Z"/>
	</svg>
</symbol>
<symbol id="grid-ukulele-2">
	<svg width="110" height="225" viewBox="0 0 110 209" fill="none" xmlns="http://www.w3.org/2000/svg">
		<path d="M1 48.5H109V40.5H1V48.5Z" fill="#EEEEEE"/>
		<path d="M1 91.5H109V83.5H1V91.5Z" fill="#EEEEEE"/>
		<path d="M1 134.5H109V126.5H1V134.5Z" fill="#EEEEEE"/>
		<path d="M1 177.5H109V169.5H1V177.5Z" fill="#EEEEEE"/>
		<path d="M9 0H101C105.971 0 110 4.02944 110 9V208C110 212.971 105.971 217 101 217H9C4.02944 217 0 212.971 0 208V9C0 4.02944 4.02944 0 9 0ZM9 2C5.13401 2 2 5.13401 2 9V208C2 211.866 5.13401 215 9 215H101C104.866 215 108 211.866 108 208V9C108 5.13401 104.866 2 101 2H9Z" fill="#333333"/>
		<path d="M36 1V216C36 216.552 36.4477 217 37 217C37.5523 217 38 216.552 38 216V1C38 0.447715 37.5523 0 37 0C36.4477 0 36 0.447715 36 1ZM72 1V216C72 216.552 72.4477 217 73 217C73.5523 217 74 216.552 74 216V1C74 0.447715 73.5523 0 73 0C72.4477 0 72 0.447715 72 1Z" fill="#333333"/>
		<rect x="35" width="4" height="217" fill="#333333"/>
		<rect x="71.5" width="3" height="217" fill="#333333"/>
	</svg>
</symbol>
<symbol id="bar-end">
	<svg xmlns="http://www.w3.org/2000/svg" width="15" height="30" viewBox="0 0 15 30"><path fill="#333" fill-rule="evenodd" d="M15,0 C6.71572875,0 0,6.71572875 0,15 C0,23.2842712 6.71572875,30 15,30 L15,0 Z"/>
	</svg>
</symbol>
<symbol id="circle-9-black">
	<svg xmlns="http://www.w3.org/2000/svg" width="30" height="30" viewBox="0 0 30 30"><path fill="#333" d="M10.9000002,23.05 L10.9000002,21.0250001 C11.6000002,21.2000001 12.4000002,21.2750001 13.1500002,21.2750001 C16.35,21.2750001 18.1,19.6250001 18.6749999,16.4000003 C18.7499999,15.9250003 18.7999999,15.6250003 18.8999999,15.2000003 L18.8749999,15.2000003 C18.075,16.3500003 16.7,17.0500002 14.9750001,17.0500002 C11.7750002,17.0500002 10.0000003,14.9500003 10.0000003,12.1500004 C10.0000003,8.72500057 12.3500002,6.50000066 15.6000001,6.50000066 C19.0000003,6.50000066 21.2249998,8.57500058 21.2249998,13.3500004 C21.2249998,20.4500001 17.725,23.225 12.9000002,23.225 C12.2500002,23.225 11.5500002,23.175 10.9000002,23.05 Z M18.7249999,12.0000004 C18.7249999,9.90000052 17.575,8.35000059 15.4250001,8.35000059 C13.4500001,8.35000059 12.2750002,9.87500053 12.2750002,11.8000004 C12.2750002,13.8250004 13.4250001,15.1250003 15.4250001,15.1250003 C17.55,15.1250003 18.7249999,13.7000004 18.7249999,12.0000004 Z"/>
	</svg>
</symbol>
<symbol id="circle-2">
	<svg xmlns="http://www.w3.org/2000/svg" width="30" height="30" viewBox="0 0 30 30"><g fill="none" fill-rule="evenodd" transform="translate(0 -2)"><circle cx="15" cy="17" r="15" fill="#333"/><path fill="#FFF" fill-rule="nonzero" d="M20.9749998,25 L10.3250003,25 L10.3250003,23.1750001 L13.9000001,19.6500002 C17.35,16.3500003 17.925,15.1500004 17.925,13.5750005 C17.925,11.8750005 16.775,10.5250007 14.7000001,10.5250007 C13.2250002,10.5250007 11.8500002,11.1500006 11.0250002,11.7750005 L10.4750003,9.85000061 C11.7000002,9.07500064 13.3000001,8.52500066 15.1000001,8.52500066 C18.6499999,8.52500066 20.3749999,10.7500006 20.3749999,13.2000005 C20.3749999,15.3250004 19.6249999,16.9750003 16.375,20.0000002 L13.3500001,22.8750001 L13.3500001,22.9000001 C14.4000001,22.8750001 16.225,22.8500001 18.4999999,22.8500001 L20.9749998,22.8500001 L20.9749998,25 Z"/></g>
	</svg>
</symbol>
<symbol id="grid-piano-1">
	<svg xmlns="http://www.w3.org/2000/svg" width="506" height="225" viewBox="0 0 506 225"><g fill="none" fill-rule="evenodd"><path fill="#333" fill-rule="nonzero" d="M8,-1 L496,-1 C500.970563,-1 505,3.02943725 505,8 L505,215 C505,219.970563 500.970563,224 496,224 L8,224 C3.02943725,224 -1,219.970563 -1,215 L-1,8 C-1,3.02943725 3.02943725,-1 8,-1 Z M8,1 C4.13400675,1 1,4.13400675 1,8 L1,215 C1,218.865993 4.13400675,222 8,222 L496,222 C499.865993,222 503,218.865993 503,215 L503,8 C503,4.13400675 499.865993,1 496,1 L8,1 Z" transform="translate(1 1)"/><g fill="#333" fill-rule="nonzero" stroke-linecap="round" transform="translate(36)"><polygon points="108 0 108 225 110 225 110 0"/><polygon points="36 0 36 225 38 225 38 0"/><polygon points="72 0 72 225 74 225 74 0"/><polygon points="0 0 0 225 2 225 2 0"/><polygon points="180 0 180 225 182 225 182 0"/><polygon points="144 0 144 225 146 225 146 0"/><polygon points="216 0 216 225 218 225 218 0"/><polygon points="252 0 252 225 254 225 254 0"/><polygon points="324 0 324 225 326 225 326 0"/><polygon points="288 0 288 225 290 225 290 0"/><polygon points="360 0 360 225 362 225 362 0"/><polygon points="396 0 396 225 398 225 398 0"/><polygon points="432 0 432 225 434 225 434 0"/></g><path fill="#333" d="M130 0L160 0 160 128C160 132.418278 156.418278 136 152 136L138 136C133.581722 136 130 132.418278 130 128L130 0zM58 0L88 0 88 128C88 132.418278 84.418278 136 80 136L66 136C61.581722 136 58 132.418278 58 128L58 0zM22 0L52 0 52 128C52 132.418278 48.418278 136 44 136L30 136C25.581722 136 22 132.418278 22 128L22 0zM382 0L412 0 412 128C412 132.418278 408.418278 136 404 136L390 136C385.581722 136 382 132.418278 382 128L382 0zM166 0L196 0 196 128C196 132.418278 192.418278 136 188 136L174 136C169.581722 136 166 132.418278 166 128L166 0zM418 0L448 0 448 128C448 132.418278 444.418278 136 440 136L426 136C421.581722 136 418 132.418278 418 128L418 0zM202 0L232 0 232 128C232 132.418278 228.418278 136 224 136L210 136C205.581722 136 202 132.418278 202 128L202 0zM454 0L484 0 484 128C484 132.418278 480.418278 136 476 136L462 136C457.581722 136 454 132.418278 454 128L454 0zM274 0L304 0 304 128C304 132.418278 300.418278 136 296 136L282 136C277.581722 136 274 132.418278 274 128L274 0zM310 0L340 0 340 128C340 132.418278 336.418278 136 332 136L318 136C313.581722 136 310 132.418278 310 128L310 0z"/></g>
	</svg>
</symbol>
<symbol id="grid-ukulele-1">
	<svg width="110" height="225" viewBox="0 0 110 225" fill="none" xmlns="http://www.w3.org/2000/svg">
		<path d="M1 56.5H109V48.5H1V56.5Z" fill="#EEEEEE"/>
		<path d="M1 99.5H109V91.5H1V99.5Z" fill="#EEEEEE"/>
		<path d="M1 142.5H109V134.5H1V142.5Z" fill="#EEEEEE"/>
		<path d="M1 185.5H109V177.5H1V185.5Z" fill="#EEEEEE"/>
		<path d="M0 8H110V216C110 220.971 105.971 225 101 225H9C4.02944 225 0 220.971 0 216V8ZM2 10V216C2 219.866 5.13401 223 9 223H101C104.866 223 108 219.866 108 216V10H2Z" fill="#333333"/>
		<path d="M2 9C2 5.13401 5.13401 2 9 2H101C104.866 2 108 5.13401 108 9C108 9.55228 108.448 10 109 10C109.552 10 110 9.55228 110 9C110 4.02944 105.971 0 101 0H9C4.02944 0 0 4.02944 0 9C0 9.55228 0.447715 10 1 10C1.55228 10 2 9.55228 2 9Z" fill="#333333"/>
		<path d="M36 9V224C36 224.552 36.4477 225 37 225C37.5523 225 38 224.552 38 224V9C38 8.44772 37.5523 8 37 8C36.4477 8 36 8.44772 36 9ZM72 9V224C72 224.552 72.4477 225 73 225C73.5523 225 74 224.552 74 224V9C74 8.44772 73.5523 8 73 8C72.4477 8 72 8.44772 72 9Z" fill="#333333"/>
		<rect x="35" y="9" width="4" height="216" fill="#333333"/>
		<rect x="71.5" y="8" width="3" height="217" fill="#333333"/>
	</svg>
</symbol>
<symbol id="circle-8-black">
	<svg xmlns="http://www.w3.org/2000/svg" width="30" height="30" viewBox="0 0 30 30"><path fill="#333" d="M20.7499998,18.8250002 C20.7499998,21.5500001 18.2999999,23.25 15.1000001,23.25 C11.8500002,23.25 9.72500027,21.6500001 9.72500027,19.1750002 C9.72500027,17.1000002 11.3750002,15.8500003 13.2000001,14.8000003 C11.3000002,13.8250004 10.1250003,12.6750004 10.1250003,10.8000005 C10.1250003,8.32500059 12.2500002,6.50000066 15.375,6.50000066 C18.4999999,6.50000066 20.3499998,8.15000059 20.3499998,10.4500005 C20.3499998,12.3250004 18.9249999,13.4750004 17.25,14.4750003 C19.0499999,15.4000003 20.7499998,16.5500003 20.7499998,18.8250002 Z M18.0499999,10.6500005 C18.0499999,9.17500055 16.925,8.30000059 15.2000001,8.30000059 C13.4500002,8.30000059 12.4500002,9.35000055 12.4500002,10.6000005 C12.4500002,11.9500004 13.3750001,12.6500004 15.375,13.6250004 C16.825,12.8000006 18.0499999,11.9750004 18.0499999,10.6500005 Z M18.3999999,19.0500002 C18.3999999,17.2750002 16.825,16.4750003 15.0750002,15.6750003 C13.5000001,16.5500003 12.0750002,17.4750002 12.0750002,19.0000002 C12.0750002,20.4000001 13.2250001,21.4000001 15.325,21.4000001 C17.05,21.4000001 18.3999999,20.5500001 18.3999999,19.0500002 Z"/>
	</svg>
</symbol>
<symbol id="piano-circle-black">
	<svg xmlns="http://www.w3.org/2000/svg" width="16" height="16" viewBox="0 0 16 16"><circle cx="8" cy="8" r="8" fill="#333" fill-rule="evenodd"/>
	</svg>
</symbol>
<symbol id="grid-guitar-2">
	<svg width="182" height="225" viewBox="0 0 182 209" fill="none" xmlns="http://www.w3.org/2000/svg">
		<path d="M1 48.5H180V40.5H1V48.5Z" fill="#EEEEEE"/>
		<path d="M1 91.5H180V83.5H1V91.5Z" fill="#EEEEEE"/>
		<path d="M1 134.5H180V126.5H1V134.5Z" fill="#EEEEEE"/>
		<path d="M1 177.5H180V169.5H1V177.5Z" fill="#EEEEEE"/>
		<rect x="1" y="1" width="180" height="215" rx="8" stroke="#333333" stroke-width="2"/>
		<path fill-rule="evenodd" clip-rule="evenodd" d="M39 1.99999L39 216L35 216L35 1.99999L39 1.99999Z" fill="#333333"/>
		<path fill-rule="evenodd" clip-rule="evenodd" d="M74.5 6.47666e-06L74.5 216L71.5 216L71.5 6.61612e-06L74.5 6.47666e-06Z" fill="#333333"/>
		<path fill-rule="evenodd" clip-rule="evenodd" d="M109.954 6.51366e-06L109.954 216L107.75 216L107.75 6.61612e-06L109.954 6.51366e-06Z" fill="#333333"/>
		<path fill-rule="evenodd" clip-rule="evenodd" d="M146 2L146 216L144 216L144 2L146 2Z" fill="#333333"/>
		<path d="M0 11C0 6.02943 4.02944 2 9 2C6.23858 2 4 6.02944 4 11V206C4 210.971 6.23858 215 9 215C4.02944 215 0 210.971 0 206V11Z" fill="#333333"/>
	</svg>
</symbol>
<symbol id="circle-4-black">
	<svg xmlns="http://www.w3.org/2000/svg" width="30" height="30" viewBox="0 0 30 30"><path fill="#333" d="M20.5749998,19.2500007 L17.8999999,19.2500007 L17.8999999,23 L15.675,23 L15.675,19.2500007 L8.1250003,19.2500007 L7.9500003,17.4250002 L14.85,6.75000065 L17.8999999,6.75000065 L17.8999999,17.2000002 L20.5749998,17.2000002 L20.5749998,19.2500007 Z M15.7,17.2000002 L15.7,9.00000056 L15.675,9.00000056 L10.2500002,17.2750002 C11.7500002,17.2000002 14.7,17.2000002 15.7,17.2000002 Z"/>
	</svg>
</symbol>
<symbol id="circle-3-black">
	<svg xmlns="http://www.w3.org/2000/svg" width="30" height="30" viewBox="0 0 30 30"><path fill="#333" d="M10.8000002,22.85 L11.0500002,20.8250001 C11.9500002,21.1250001 13.0000002,21.3250001 14.1250001,21.3250001 C16.85,21.3250001 18.2749999,20.1000001 18.2749999,18.3250002 C18.2749999,16.5500003 16.875,15.4250003 14.2250001,15.4250003 C13.3250001,15.4250003 12.6250002,15.4500003 11.7750002,15.5500003 L11.7750002,13.7500004 L12.3500002,13.7500004 C15.85,13.7500004 17.95,12.8000004 17.95,10.7500005 C17.95,9.27500055 16.775,8.37500059 14.8750001,8.37500059 C13.5000001,8.37500059 12.3250002,8.75000057 11.3000002,9.30000055 L11.0750002,7.32500063 C12.2500002,6.85000065 13.6250001,6.50000066 15.2750001,6.50000066 C18.6249999,6.50000066 20.3249999,8.17500059 20.3249999,10.4000005 C20.3249999,12.3250004 19.1749999,13.6250004 17.225,14.2000004 L17.2,14.2250004 C19.2249999,14.4250003 20.7249999,16.0750003 20.7249999,18.0250002 C20.7249999,21.2250001 18.05,23.25 13.9000001,23.25 C12.7750002,23.25 11.6250002,23.075 10.8000002,22.85 Z"/>
	</svg>
</symbol>
<symbol id="circle-2-black">
	<svg xmlns="http://www.w3.org/2000/svg" width="30" height="30" viewBox="0 0 30 30"><path fill="#333" d="M10.9749998,17 L0.325000267,17 L0.325000267,15.1750001 L3.90000012,11.6500002 C7.34999999,8.35000035 7.92499996,7.15000039 7.92499996,5.57500046 C7.92499996,3.87500052 6.77500001,2.52500066 4.70000009,2.52500066 C3.22500015,2.52500066 1.85000021,3.15000055 1.02500024,3.77500053 L0.475000261,1.85000061 C1.70000021,1.07500064 3.30000015,0.525000659 5.10000008,0.525000659 C8.64999993,0.525000659 10.3749999,2.75000057 10.3749999,5.20000047 C10.3749999,7.32500039 9.62499989,8.97500032 6.37500002,12.0000002 L3.35000015,14.8750001 L3.35000015,14.9000001 C4.4000001,14.8750001 6.22500003,14.8500001 8.49999994,14.8500001 L10.9749998,14.8500001 L10.9749998,17 Z" transform="translate(10 6)"/>
	</svg>
</symbol>
<symbol id="circle-3">
	<svg xmlns="http://www.w3.org/2000/svg" width="30" height="30" viewBox="0 0 30 30"><g fill="none" fill-rule="evenodd" transform="translate(0 -2)"><circle cx="15" cy="17" r="15" fill="#333"/><path fill="#FFF" fill-rule="nonzero" d="M10.8000002,24.85 L11.0500002,22.8250001 C11.9500002,23.1250001 13.0000002,23.3250001 14.1250001,23.3250001 C16.85,23.3250001 18.2749999,22.1000001 18.2749999,20.3250002 C18.2749999,18.5500003 16.875,17.4250003 14.2250001,17.4250003 C13.3250001,17.4250003 12.6250002,17.4500003 11.7750002,17.5500003 L11.7750002,15.7500004 L12.3500002,15.7500004 C15.85,15.7500004 17.95,14.8000004 17.95,12.7500005 C17.95,11.2750005 16.775,10.3750006 14.8750001,10.3750006 C13.5000001,10.3750006 12.3250002,10.7500006 11.3000002,11.3000005 L11.0750002,9.32500063 C12.2500002,8.85000065 13.6250001,8.50000066 15.2750001,8.50000066 C18.6249999,8.50000066 20.3249999,10.1750006 20.3249999,12.4000005 C20.3249999,14.3250004 19.1749999,15.6250004 17.225,16.2000004 L17.2,16.2250004 C19.2249999,16.4250003 20.7249999,18.0750003 20.7249999,20.0250002 C20.7249999,23.2250001 18.05,25.25 13.9000001,25.25 C12.7750002,25.25 11.6250002,25.075 10.8000002,24.85 Z"/></g>
	</svg>
</symbol>
<symbol id="piano-circle-white">
	<svg xmlns="http://www.w3.org/2000/svg" width="16" height="16" viewBox="0 0 16 16"><circle cx="8" cy="8" r="8" fill="#FFF" fill-rule="evenodd"/>
	</svg>
</symbol>
<symbol id="circle-4">
	<svg xmlns="http://www.w3.org/2000/svg" width="30" height="30" viewBox="0 0 30 30"><g fill="none" fill-rule="evenodd" transform="translate(0 -2)"><circle cx="15" cy="17" r="15" fill="#333"/><path fill="#FFF" fill-rule="nonzero" d="M20.5749998,21.2500007 L17.8999999,21.2500007 L17.8999999,25 L15.675,25 L15.675,21.2500007 L8.1250003,21.2500007 L7.9500003,19.4250002 L14.85,8.75000065 L17.8999999,8.75000065 L17.8999999,19.2000002 L20.5749998,19.2000002 L20.5749998,21.2500007 Z M15.7,19.2000002 L15.7,11.0000006 L15.675,11.0000006 L10.2500002,19.2750002 C11.7500002,19.2000002 14.7,19.2000002 15.7,19.2000002 Z"/></g>
	</svg>
</symbol>
<symbol id="circle-7-black">
	<svg xmlns="http://www.w3.org/2000/svg" width="30" height="30" viewBox="0 0 30 30"><path fill="#333" d="M21.2499998,6.75000065 L21.2499998,8.70000057 C18.7249999,13.4000004 16.45,18.7500007 15.0000001,23 L12.3750002,23 C14.0250001,18.4750002 16.2750003,13.2750004 18.6499999,8.90000056 C18.075,8.92500056 14.8000001,8.95000056 12.4750002,8.95000056 L10.2750003,8.95000056 L10.2750003,6.75000065 L21.2499998,6.75000065 Z"/>
	</svg>
</symbol>
<symbol id="circle-5-black">
	<svg xmlns="http://www.w3.org/2000/svg" width="30" height="30" viewBox="0 0 30 30"><path fill="#333" d="M11.0000002,22.9 L11.0000002,20.8250001 C11.9250002,21.1250001 12.9750002,21.3000001 14.1750001,21.3000001 C16.85,21.3000001 18.3249999,19.9750001 18.3249999,17.9500002 C18.3249999,15.9500003 16.65,14.9250003 14.0750001,14.9250003 C13.0250002,14.9250003 12.0000002,15.0000003 11.3500002,15.1250003 L11.3500002,6.75000065 L20.1499999,6.75000065 L20.1499999,8.90000056 L13.4500001,8.90000056 L13.4500001,13.1500004 C13.8750001,13.1250004 14.4500001,13.1000004 14.8250001,13.1000004 C18.6999999,13.1000004 20.7499999,15.1000003 20.7499999,17.6750002 C20.7499999,21.0250001 18.05,23.225 14.0000002,23.225 C12.9000002,23.225 11.9750002,23.125 11.0000002,22.9 Z"/>
	</svg>
</symbol>
<symbol id="circle-0-black">
	<svg xmlns="http://www.w3.org/2000/svg" width="30" height="30" viewBox="0 0 30 30"><path fill="#333" d="M20.9249998,14.7000003 C20.9249998,20.9250001 18.0500003,23.25 15.1000001,23.25 C11.5250002,23.25 9.55000028,21.0500001 9.55000028,14.8000003 C9.55000028,9.10000056 12.0000002,6.50000066 15.4,6.50000066 C18.6249999,6.50000066 20.9249998,8.42500058 20.9249998,14.7000003 Z M18.4999999,14.8500003 C18.4999999,10.0250005 17.45,8.40000058 15.2250001,8.40000058 C13.3750001,8.40000058 11.9750002,10.0000005 11.9750002,14.6500003 C11.9750002,19.2500001 12.8250001,21.3250001 15.2250001,21.3250001 C17.275,21.3250001 18.4999999,19.2500001 18.4999999,14.8500003 Z"/>
	</svg>
</symbol>
<symbol id="grid-guitar-1">
	<svg width="182" height="225" viewBox="0 0 182 225" fill="none" xmlns="http://www.w3.org/2000/svg">
		<path d="M1 56.5H180V48.5H1V56.5Z" fill="#EEEEEE"/>
		<path d="M1 99.5H180V91.5H1V99.5Z" fill="#EEEEEE"/>
		<path d="M1 142.5H180V134.5H1V142.5Z" fill="#EEEEEE"/>
		<path d="M1 185.5H180V177.5H1V185.5Z" fill="#EEEEEE"/>
		<rect x="1" y="1" width="180" height="223" rx="8" stroke="#333333" stroke-width="2"/>
		<path d="M1 9H181V216C181 220.418 177.418 224 173 224H9C4.58173 224 1 220.418 1 216V9Z" stroke="#333333" stroke-width="2"/>
		<path fill-rule="evenodd" clip-rule="evenodd" d="M39 9.99999L39 224L35 224L35 9.99999L39 9.99999Z" fill="#333333"/>
		<path fill-rule="evenodd" clip-rule="evenodd" d="M4.00001 9L4 216L0 216L9.04826e-06 9L4.00001 9Z" fill="#333333"/>
		<path fill-rule="evenodd" clip-rule="evenodd" d="M74.5 8.00001L74.5 224L71.5 224L71.5 8.00001L74.5 8.00001Z" fill="#333333"/>
		<path fill-rule="evenodd" clip-rule="evenodd" d="M109.954 8.00001L109.954 224L107.75 224L107.75 8.00001L109.954 8.00001Z" fill="#333333"/>
		<path fill-rule="evenodd" clip-rule="evenodd" d="M146 10L146 224L144 224L144 10L146 10Z" fill="#333333"/>
		<path d="M0 9H4V214C4 218.971 6.23858 223 9 223C4.02944 223 0 218.971 0 214V9Z" fill="#333333"/>
	</svg>
</symbol>
<symbol id="o">
	<svg xmlns="http://www.w3.org/2000/svg" width="30" height="30" viewBox="0 0 30 30"><path fill="#333" d="M15,28 C22.1797017,28 28,22.1797017 28,15 C28,7.82029825 22.1797017,2 15,2 C7.82029825,2 2,7.82029825 2,15 C2,22.1797017 7.82029825,28 15,28 Z M15,26 C8.92486775,26 4,21.0751322 4,15 C4,8.92486775 8.92486775,4 15,4 C21.0751322,4 26,8.92486775 26,15 C26,21.0751322 21.0751322,26 15,26 Z"/>
	</svg>
</symbol>
<symbol id="x">
	<svg xmlns="http://www.w3.org/2000/svg" width="30" height="30" viewBox="0 0 30 30"><g fill="#333" transform="translate(4 4)"><path d="M-0.478500931,0.760139452 L21.061059,22.2996994 C21.4515833,22.6902237 22.0847483,22.6902237 22.4752726,22.2996994 C22.8657968,21.9091751 22.8657968,21.2760101 22.4752726,20.8854858 L0.935712632,-0.654074111 C0.54518834,-1.0445984 -0.0879766389,-1.0445984 -0.478500931,-0.654074111 C-0.869025222,-0.263549819 -0.869025222,0.36961516 -0.478500931,0.760139452 Z" transform="rotate(-90 10.998 10.823)"/><path d="M-0.299699374,0.935712632 L21.2398605,22.4752726 C21.6303848,22.8657968 22.2635498,22.8657968 22.6540741,22.4752726 C23.0445984,22.0847483 23.0445984,21.4515833 22.6540741,21.061059 L1.11451419,-0.478500931 C0.723989897,-0.869025222 0.090824918,-0.869025222 -0.299699374,-0.478500931 C-0.690223666,-0.0879766389 -0.690223666,0.54518834 -0.299699374,0.935712632 Z"/></g>
	</svg>
</symbol>
<symbol id="circle-1">
	<svg xmlns="http://www.w3.org/2000/svg" width="30" height="30" viewBox="0 0 30 30"><g fill="none" fill-rule="evenodd"><circle cx="15" cy="15" r="15" fill="#333"/><polygon fill="#FFF" fill-rule="nonzero" points="21.275 23 10.725 23 10.725 20.975 15.1 20.975 15.1 9 11.1 10.35 10.7 8.45 15.475 6.75 17.425 6.75 17.425 20.975 21.275 20.975"/></g>
	</svg>
</symbol>
<symbol id="grid-mandolin-1">
	<svg xmlns="http://www.w3.org/2000/svg" width="110" height="225" viewBox="0 0 110 225">
		<g fill="none" transform="translate(1 1)">
			<g fill="#EEE" transform="translate(0 50.5)">
				<polygon points="0 5 108 5 108 -3 0 -3"/>
				<polygon points="0 48 108 48 108 40 0 40"/>
				<polygon points="0 91 108 91 108 83 0 83"/>
				<polygon points="0 134 108 134 108 126 0 126"/>
			</g>
			<path fill="#333" d="M-1,7 L109,7 L109,215 C109,219.970563 104.970563,224 100,224 L8,224 C3.02943725,224 -1,219.970563 -1,215 L-1,7 Z M1,9 L1,215 C1,218.865993 4.13400675,222 8,222 L100,222 C103.865993,222 107,218.865993 107,215 L107,9 L1,9 Z"/>
			<path fill="#333" d="M1,8 C1,4.13400675 4.13400675,1 8,1 L100,1 C103.865993,1 107,4.13400675 107,8 C107,8.55228475 107.447715,9 108,9 C108.552285,9 109,8.55228475 109,8 C109,3.02943725 104.970563,-1 100,-1 L8,-1 C3.02943725,-1 -1,3.02943725 -1,8 C-1,8.55228475 -0.55228475,9 0,9 C0.55228475,9 1,8.55228475 1,8 Z"/>
			<path fill="#333" d="M-.5 0L-.5 215C-.5 215.552285-.0522847498 216 .5 216 1.05228475 216 1.5 215.552285 1.5 215L1.5 0C1.5-.55228475 1.05228475-1 .5-1-.0522847498-1-.5-.55228475-.5 0zM35.5 0L35.5 215C35.5 215.552285 35.9477153 216 36.5 216 37.0522847 216 37.5 215.552285 37.5 215L37.5 0C37.5-.55228475 37.0522847-1 36.5-1 35.9477153-1 35.5-.55228475 35.5 0z" transform="translate(35.5 8)"/>
		</g>
</svg>
</symbol>
<symbol id="grid-mandolin-2">
	<svg xmlns="http://www.w3.org/2000/svg" width="110" height="225" viewBox="0 0 110 225">
		<g fill="none" transform="translate(0 8)">
			<g fill="#EEE" transform="translate(1 43.5)">
				<polygon points="0 5 108 5 108 -3 0 -3"/>
				<polygon points="0 48 108 48 108 40 0 40"/>
				<polygon points="0 91 108 91 108 83 0 83"/>
				<polygon points="0 134 108 134 108 126 0 126"/>
			</g>
			<path fill="#333" d="M9,0 L101,0 C105.970563,0 110,4.02943725 110,9 L110,208 C110,212.970563 105.970563,217 101,217 L9,217 C4.02943725,217 0,212.970563 0,208 L0,9 C0,4.02943725 4.02943725,0 9,0 Z M9,2 C5.13400675,2 2,5.13400675 2,9 L2,208 C2,211.865993 5.13400675,215 9,215 L101,215 C104.865993,215 108,211.865993 108,208 L108,9 C108,5.13400675 104.865993,2 101,2 L9,2 Z"/>
			<path fill="#333" d="M.5 1L.5 216C.5 216.552285.94771525 217 1.5 217 2.05228475 217 2.5 216.552285 2.5 216L2.5 1C2.5.44771525 2.05228475 0 1.5 0 .94771525 0 .5.44771525.5 1zM36.5 1L36.5 216C36.5 216.552285 36.9477153 217 37.5 217 38.0522847 217 38.5 216.552285 38.5 216L38.5 1C38.5.44771525 38.0522847 0 37.5 0 36.9477153 0 36.5.44771525 36.5 1z" transform="translate(35.5)"/>
		</g>
	</svg>
</symbol>
</svg>
